<svg width="393" height="393" viewBox="0 0 393 393" fill="none" xmlns="http://www.w3.org/2000/svg">
<g clip-path="url(#clip0)">
<path d="M368.62 17.9512H23.568C10.57 17.9512 0 28.5242 0 41.5202V350.666C0 363.662 10.57 374.234 23.568 374.234H368.621C381.615 374.234 392.185 363.662 392.185 350.666V41.5202C392.188 28.5252 381.614 17.9512 368.62 17.9512ZM297.56 57.5282C297.56 52.7222 301.456 48.8252 306.261 48.8252H314.964C319.772 48.8252 323.665 52.7212 323.665 57.5282V67.3912C323.665 72.1972 319.769 76.0932 314.964 76.0932H306.261C301.456 76.0932 297.56 72.1972 297.56 67.3912V57.5282ZM257.093 57.5282C257.093 52.7222 260.991 48.8252 265.796 48.8252H274.497C279.302 48.8252 283.2 52.7212 283.2 57.5282V67.3912C283.2 72.1972 279.302 76.0932 274.497 76.0932H265.796C260.991 76.0932 257.093 72.1972 257.093 67.3912V57.5282ZM363.903 345.951H28.282V102.235H363.903V345.951V345.951ZM364.132 67.3912C364.132 72.1972 360.236 76.0932 355.431 76.0932H346.728C341.919 76.0932 338.026 72.1972 338.026 67.3912V57.5282C338.026 52.7222 341.922 48.8252 346.728 48.8252H355.431C360.237 48.8252 364.132 52.7212 364.132 57.5282V67.3912Z" fill="#232735"/>
<path d="M84.185 233.284L147.269 262.62C148.9 263.375 150.636 263.758 152.431 263.758C154.769 263.758 157.048 263.094 159.029 261.834C162.576 259.567 164.695 255.704 164.695 251.5V251.178C164.695 246.426 161.91 242.062 157.599 240.06L118.144 221.728L157.599 203.394C161.91 201.39 164.695 197.027 164.695 192.277V191.958C164.695 187.748 162.576 183.883 159.029 181.624C157.068 180.371 154.783 179.708 152.424 179.708C150.645 179.708 148.861 180.099 147.264 180.841L84.184 210.174C79.877 212.178 77.094 216.543 77.094 221.291V222.168C77.093 226.909 79.874 231.272 84.185 233.284Z" fill="#232735"/>
<path d="M165.257 293.036C167.558 296.185 171.259 298.066 175.157 298.066H175.473C180.825 298.066 185.514 294.64 187.145 289.549L228.7 160.788C229.892 157.072 229.231 152.97 226.929 149.815C224.628 146.665 220.927 144.785 217.028 144.785H216.713C211.359 144.785 206.665 148.21 205.034 153.301L163.475 282.072C162.292 285.793 162.958 289.889 165.257 293.036Z" fill="#232735"/>
<path d="M227.49 192.276C227.49 197.021 230.273 201.385 234.585 203.399L274.04 221.728L234.585 240.058C230.275 242.062 227.49 246.426 227.49 251.176V251.498C227.49 255.703 229.607 259.566 233.158 261.834C235.132 263.092 237.412 263.758 239.753 263.758C241.546 263.758 243.281 263.375 244.923 262.616L308.003 233.281C312.31 231.272 315.093 226.909 315.093 222.166V221.289C315.093 216.541 312.31 212.176 307.999 210.172L244.919 180.839C243.328 180.099 241.546 179.708 239.767 179.708C237.412 179.708 235.124 180.369 233.163 181.62C229.612 183.883 227.493 187.747 227.493 191.957V192.275H227.49V192.276Z" fill="#232735"/>
</g>
<defs>
<clipPath id="clip0">
<rect width="392.186" height="392.186" fill="white"/>
</clipPath>
</defs>
</svg>
