<svg width="195" height="96" viewBox="0 0 195 96" fill="none" xmlns="http://www.w3.org/2000/svg">
<path d="M35.5918 51.9102L7.4375 39.5469V36.6758L35.5918 22.6426V27.0078L12.6816 37.877L35.5918 47.4863V51.9102ZM153.658 16.168L137.691 59H132.828L148.795 16.168H153.658ZM157.32 47.4863L180.26 37.9355L157.32 27.0078V22.6426L185.475 36.6758V39.5469L157.32 51.9102V47.4863Z" fill="#303A40"/>
<path d="M8.91406 89H7.92969L6.20117 83.2637C6.11914 83.0098 6.02734 82.6895 5.92578 82.3027C5.82422 81.916 5.77148 81.6836 5.76758 81.6055C5.68164 82.1211 5.54492 82.6855 5.35742 83.2988L3.68164 89H2.69727L0.417969 80.4336H1.47266L2.82617 85.7246C3.01367 86.4668 3.15039 87.1387 3.23633 87.7402C3.3418 87.0254 3.49805 86.3262 3.70508 85.6426L5.24023 80.4336H6.29492L7.90625 85.6895C8.09375 86.2949 8.25195 86.9785 8.38086 87.7402C8.45508 87.1855 8.5957 86.5098 8.80273 85.7129L10.1504 80.4336H11.2051L8.91406 89ZM15.1836 89H14.1875V81.3184H11.4746V80.4336H17.8965V81.3184H15.1836V89ZM20.1875 89H19.1914V80.4336H23.9668V81.3184H20.1875V84.4531H23.7383V85.3379H20.1875V89ZM32.1758 81.2012C31.2344 81.2012 30.4902 81.5156 29.9434 82.1445C29.4004 82.7695 29.1289 83.627 29.1289 84.7168C29.1289 85.8379 29.3906 86.7051 29.9141 87.3184C30.4414 87.9277 31.1914 88.2324 32.1641 88.2324C32.7617 88.2324 33.4434 88.125 34.209 87.9102V88.7832C33.6152 89.0059 32.8828 89.1172 32.0117 89.1172C30.75 89.1172 29.7754 88.7344 29.0879 87.9688C28.4043 87.2031 28.0625 86.1152 28.0625 84.7051C28.0625 83.8223 28.2266 83.0488 28.5547 82.3848C28.8867 81.7207 29.3633 81.209 29.9844 80.8496C30.6094 80.4902 31.3438 80.3105 32.1875 80.3105C33.0859 80.3105 33.8711 80.4746 34.543 80.8027L34.1211 81.6582C33.4727 81.3535 32.8242 81.2012 32.1758 81.2012ZM37.0742 85.4375V89H36.0781V80.4336H38.4277C39.4785 80.4336 40.2539 80.6348 40.7539 81.0371C41.2578 81.4395 41.5098 82.0449 41.5098 82.8535C41.5098 83.9863 40.9355 84.752 39.7871 85.1504L42.1133 89H40.9355L38.8613 85.4375H37.0742ZM37.0742 84.582H38.4395C39.1426 84.582 39.6582 84.4434 39.9863 84.166C40.3145 83.8848 40.4785 83.4648 40.4785 82.9062C40.4785 82.3398 40.3105 81.9316 39.9746 81.6816C39.6426 81.4316 39.1074 81.3066 38.3691 81.3066H37.0742V84.582ZM48.2715 89H43.4961V80.4336H48.2715V81.3184H44.4922V84.0781H48.043V84.957H44.4922V88.1094H48.2715V89ZM57.6523 89H56.668L54.9395 83.2637C54.8574 83.0098 54.7656 82.6895 54.6641 82.3027C54.5625 81.916 54.5098 81.6836 54.5059 81.6055C54.4199 82.1211 54.2832 82.6855 54.0957 83.2988L52.4199 89H51.4355L49.1562 80.4336H50.2109L51.5645 85.7246C51.752 86.4668 51.8887 87.1387 51.9746 87.7402C52.0801 87.0254 52.2363 86.3262 52.4434 85.6426L53.9785 80.4336H55.0332L56.6445 85.6895C56.832 86.2949 56.9902 86.9785 57.1191 87.7402C57.1934 87.1855 57.334 86.5098 57.541 85.7129L58.8887 80.4336H59.9434L57.6523 89ZM63.7168 86.2285V85.3379H66.5938V86.2285H63.7168ZM75.3828 87.248C75.3828 87.8457 75.1602 88.3066 74.7148 88.6309C74.2695 88.9551 73.6445 89.1172 72.8398 89.1172C71.9883 89.1172 71.3242 88.9824 70.8477 88.7129V87.8105C71.1562 87.9668 71.4863 88.0898 71.8379 88.1797C72.1934 88.2695 72.5352 88.3145 72.8633 88.3145C73.3711 88.3145 73.7617 88.2344 74.0352 88.0742C74.3086 87.9102 74.4453 87.6621 74.4453 87.3301C74.4453 87.0801 74.3359 86.8672 74.1172 86.6914C73.9023 86.5117 73.4805 86.3008 72.8516 86.0586C72.2539 85.8359 71.8281 85.6426 71.5742 85.4785C71.3242 85.3105 71.1367 85.1211 71.0117 84.9102C70.8906 84.6992 70.8301 84.4473 70.8301 84.1543C70.8301 83.6309 71.043 83.2188 71.4688 82.918C71.8945 82.6133 72.4785 82.4609 73.2207 82.4609C73.9121 82.4609 74.5879 82.6016 75.248 82.8828L74.9023 83.6738C74.2578 83.4082 73.6738 83.2754 73.1504 83.2754C72.6895 83.2754 72.3418 83.3477 72.1074 83.4922C71.873 83.6367 71.7559 83.8359 71.7559 84.0898C71.7559 84.2617 71.7988 84.4082 71.8848 84.5293C71.9746 84.6504 72.1172 84.7656 72.3125 84.875C72.5078 84.9844 72.8828 85.1426 73.4375 85.3496C74.1992 85.627 74.7129 85.9062 74.9785 86.1875C75.248 86.4688 75.3828 86.8223 75.3828 87.248ZM82.5137 85.7832C82.5137 86.8301 82.25 87.6484 81.7227 88.2383C81.1953 88.8242 80.4668 89.1172 79.5371 89.1172C78.9629 89.1172 78.4531 88.9824 78.0078 88.7129C77.5625 88.4434 77.2188 88.0566 76.9766 87.5527C76.7344 87.0488 76.6133 86.459 76.6133 85.7832C76.6133 84.7363 76.875 83.9219 77.3984 83.3398C77.9219 82.7539 78.6484 82.4609 79.5781 82.4609C80.4766 82.4609 81.1895 82.7598 81.7168 83.3574C82.248 83.9551 82.5137 84.7637 82.5137 85.7832ZM77.6211 85.7832C77.6211 86.6035 77.7852 87.2285 78.1133 87.6582C78.4414 88.0879 78.9238 88.3027 79.5605 88.3027C80.1973 88.3027 80.6797 88.0898 81.0078 87.6641C81.3398 87.2344 81.5059 86.6074 81.5059 85.7832C81.5059 84.9668 81.3398 84.3477 81.0078 83.9258C80.6797 83.5 80.1934 83.2871 79.5488 83.2871C78.9121 83.2871 78.4316 83.4961 78.1074 83.9141C77.7832 84.332 77.6211 84.9551 77.6211 85.7832ZM87.1191 83.334H85.4844V89H84.5117V83.334H83.3633V82.8945L84.5117 82.543V82.1855C84.5117 80.6074 85.2012 79.8184 86.5801 79.8184C86.9199 79.8184 87.3184 79.8867 87.7754 80.0234L87.5234 80.8027C87.1484 80.6816 86.8281 80.6211 86.5625 80.6211C86.1953 80.6211 85.9238 80.7441 85.748 80.9902C85.5723 81.2324 85.4844 81.623 85.4844 82.1621V82.5781H87.1191V83.334ZM90.3652 88.3145C90.5371 88.3145 90.7031 88.3027 90.8633 88.2793C91.0234 88.252 91.1504 88.2246 91.2441 88.1973V88.9414C91.1387 88.9922 90.9824 89.0332 90.7754 89.0645C90.5723 89.0996 90.3887 89.1172 90.2246 89.1172C88.9824 89.1172 88.3613 88.4629 88.3613 87.1543V83.334H87.4414V82.8652L88.3613 82.4609L88.7715 81.0898H89.334V82.5781H91.1973V83.334H89.334V87.1133C89.334 87.5 89.4258 87.7969 89.6094 88.0039C89.793 88.2109 90.0449 88.3145 90.3652 88.3145ZM97.7773 89L96.5996 85.2324C96.5254 85.002 96.3867 84.4785 96.1836 83.6621H96.1367C95.9805 84.3457 95.8438 84.873 95.7266 85.2441L94.5137 89H93.3887L91.6367 82.5781H92.6562C93.0703 84.1914 93.3848 85.4199 93.5996 86.2637C93.8184 87.1074 93.9434 87.6758 93.9746 87.9688H94.0215C94.0645 87.7461 94.1328 87.459 94.2266 87.1074C94.3242 86.752 94.4082 86.4707 94.4785 86.2637L95.6562 82.5781H96.7109L97.8594 86.2637C98.0781 86.9355 98.2266 87.5 98.3047 87.957H98.3516C98.3672 87.8164 98.4082 87.5996 98.4746 87.3066C98.5449 87.0137 98.9531 85.4375 99.6992 82.5781H100.707L98.9316 89H97.7773ZM105.822 89L105.629 88.0859H105.582C105.262 88.4883 104.941 88.7617 104.621 88.9062C104.305 89.0469 103.908 89.1172 103.432 89.1172C102.795 89.1172 102.295 88.9531 101.932 88.625C101.572 88.2969 101.393 87.8301 101.393 87.2246C101.393 85.9277 102.43 85.248 104.504 85.1855L105.594 85.1504V84.752C105.594 84.248 105.484 83.877 105.266 83.6387C105.051 83.3965 104.705 83.2754 104.229 83.2754C103.693 83.2754 103.088 83.4395 102.412 83.7676L102.113 83.0234C102.43 82.8516 102.775 82.7168 103.15 82.6191C103.529 82.5215 103.908 82.4727 104.287 82.4727C105.053 82.4727 105.619 82.6426 105.986 82.9824C106.357 83.3223 106.543 83.8672 106.543 84.6172V89H105.822ZM103.625 88.3145C104.23 88.3145 104.705 88.1484 105.049 87.8164C105.396 87.4844 105.57 87.0195 105.57 86.4219V85.8418L104.598 85.8828C103.824 85.9102 103.266 86.0312 102.922 86.2461C102.582 86.457 102.412 86.7871 102.412 87.2363C102.412 87.5879 102.518 87.8555 102.729 88.0391C102.943 88.2227 103.242 88.3145 103.625 88.3145ZM111.482 82.4609C111.768 82.4609 112.023 82.4844 112.25 82.5312L112.115 83.4336C111.85 83.375 111.615 83.3457 111.412 83.3457C110.893 83.3457 110.447 83.5566 110.076 83.9785C109.709 84.4004 109.525 84.9258 109.525 85.5547V89H108.553V82.5781H109.355L109.467 83.7676H109.514C109.752 83.3496 110.039 83.0273 110.375 82.8008C110.711 82.5742 111.08 82.4609 111.482 82.4609ZM116.164 89.1172C115.215 89.1172 114.465 88.8281 113.914 88.25C113.367 87.6719 113.094 86.8691 113.094 85.8418C113.094 84.8066 113.348 83.9844 113.855 83.375C114.367 82.7656 115.053 82.4609 115.912 82.4609C116.717 82.4609 117.354 82.7266 117.822 83.2578C118.291 83.7852 118.525 84.4824 118.525 85.3496V85.9648H114.102C114.121 86.7188 114.311 87.291 114.67 87.6816C115.033 88.0723 115.543 88.2676 116.199 88.2676C116.891 88.2676 117.574 88.123 118.25 87.834V88.7012C117.906 88.8496 117.58 88.9551 117.271 89.0176C116.967 89.084 116.598 89.1172 116.164 89.1172ZM115.9 83.2754C115.385 83.2754 114.973 83.4434 114.664 83.7793C114.359 84.1152 114.18 84.5801 114.125 85.1738H117.482C117.482 84.5605 117.346 84.0918 117.072 83.7676C116.799 83.4395 116.408 83.2754 115.9 83.2754ZM127.701 89V84.8457C127.701 84.3223 127.582 83.9316 127.344 83.6738C127.105 83.416 126.732 83.2871 126.225 83.2871C125.549 83.2871 125.055 83.4707 124.742 83.8379C124.434 84.2051 124.279 84.8066 124.279 85.6426V89H123.307V79.8828H124.279V82.6426C124.279 82.9746 124.264 83.25 124.232 83.4688H124.291C124.482 83.1602 124.754 82.918 125.105 82.7422C125.461 82.5625 125.865 82.4727 126.318 82.4727C127.104 82.4727 127.691 82.6602 128.082 83.0352C128.477 83.4062 128.674 83.998 128.674 84.8105V89H127.701ZM136.221 85.7832C136.221 86.8301 135.957 87.6484 135.43 88.2383C134.902 88.8242 134.174 89.1172 133.244 89.1172C132.67 89.1172 132.16 88.9824 131.715 88.7129C131.27 88.4434 130.926 88.0566 130.684 87.5527C130.441 87.0488 130.32 86.459 130.32 85.7832C130.32 84.7363 130.582 83.9219 131.105 83.3398C131.629 82.7539 132.355 82.4609 133.285 82.4609C134.184 82.4609 134.896 82.7598 135.424 83.3574C135.955 83.9551 136.221 84.7637 136.221 85.7832ZM131.328 85.7832C131.328 86.6035 131.492 87.2285 131.82 87.6582C132.148 88.0879 132.631 88.3027 133.268 88.3027C133.904 88.3027 134.387 88.0898 134.715 87.6641C135.047 87.2344 135.213 86.6074 135.213 85.7832C135.213 84.9668 135.047 84.3477 134.715 83.9258C134.387 83.5 133.9 83.2871 133.256 83.2871C132.619 83.2871 132.139 83.4961 131.814 83.9141C131.49 84.332 131.328 84.9551 131.328 85.7832ZM138.846 82.5781V86.7441C138.846 87.2676 138.965 87.6582 139.203 87.916C139.441 88.1738 139.814 88.3027 140.322 88.3027C140.994 88.3027 141.484 88.1191 141.793 87.752C142.105 87.3848 142.262 86.7852 142.262 85.9531V82.5781H143.234V89H142.432L142.291 88.1387H142.238C142.039 88.4551 141.762 88.6973 141.406 88.8652C141.055 89.0332 140.652 89.1172 140.199 89.1172C139.418 89.1172 138.832 88.9316 138.441 88.5605C138.055 88.1895 137.861 87.5957 137.861 86.7793V82.5781H138.846ZM149.445 87.248C149.445 87.8457 149.223 88.3066 148.777 88.6309C148.332 88.9551 147.707 89.1172 146.902 89.1172C146.051 89.1172 145.387 88.9824 144.91 88.7129V87.8105C145.219 87.9668 145.549 88.0898 145.9 88.1797C146.256 88.2695 146.598 88.3145 146.926 88.3145C147.434 88.3145 147.824 88.2344 148.098 88.0742C148.371 87.9102 148.508 87.6621 148.508 87.3301C148.508 87.0801 148.398 86.8672 148.18 86.6914C147.965 86.5117 147.543 86.3008 146.914 86.0586C146.316 85.8359 145.891 85.6426 145.637 85.4785C145.387 85.3105 145.199 85.1211 145.074 84.9102C144.953 84.6992 144.893 84.4473 144.893 84.1543C144.893 83.6309 145.105 83.2188 145.531 82.918C145.957 82.6133 146.541 82.4609 147.283 82.4609C147.975 82.4609 148.65 82.6016 149.311 82.8828L148.965 83.6738C148.32 83.4082 147.736 83.2754 147.213 83.2754C146.752 83.2754 146.404 83.3477 146.17 83.4922C145.936 83.6367 145.818 83.8359 145.818 84.0898C145.818 84.2617 145.861 84.4082 145.947 84.5293C146.037 84.6504 146.18 84.7656 146.375 84.875C146.57 84.9844 146.945 85.1426 147.5 85.3496C148.262 85.627 148.775 85.9062 149.041 86.1875C149.311 86.4688 149.445 86.8223 149.445 87.248ZM153.746 89.1172C152.797 89.1172 152.047 88.8281 151.496 88.25C150.949 87.6719 150.676 86.8691 150.676 85.8418C150.676 84.8066 150.93 83.9844 151.438 83.375C151.949 82.7656 152.635 82.4609 153.494 82.4609C154.299 82.4609 154.936 82.7266 155.404 83.2578C155.873 83.7852 156.107 84.4824 156.107 85.3496V85.9648H151.684C151.703 86.7188 151.893 87.291 152.252 87.6816C152.615 88.0723 153.125 88.2676 153.781 88.2676C154.473 88.2676 155.156 88.123 155.832 87.834V88.7012C155.488 88.8496 155.162 88.9551 154.854 89.0176C154.549 89.084 154.18 89.1172 153.746 89.1172ZM153.482 83.2754C152.967 83.2754 152.555 83.4434 152.246 83.7793C151.941 84.1152 151.762 84.5801 151.707 85.1738H155.064C155.064 84.5605 154.928 84.0918 154.654 83.7676C154.381 83.4395 153.99 83.2754 153.482 83.2754Z" fill="black"/>
<path d="M76.1406 53H70.5547L65.2266 34.2656C64.9974 33.4492 64.7109 32.2747 64.3672 30.7422C64.0234 29.1953 63.8158 28.1211 63.7441 27.5195C63.6009 28.4362 63.3646 29.625 63.0352 31.0859C62.7201 32.5469 62.4551 33.6354 62.2402 34.3516L57.041 53H51.4551L47.3945 37.2734L43.2695 21.5898H48.5117L53.002 39.8945C53.7038 42.8307 54.2051 45.4232 54.5059 47.6719C54.6634 46.4544 54.8997 45.0938 55.2148 43.5898C55.5299 42.0859 55.8164 40.8685 56.0742 39.9375L61.1875 21.5898H66.2793L71.5215 40.0234C72.0228 41.7279 72.5527 44.2773 73.1113 47.6719C73.3262 45.6237 73.8418 43.0169 74.6582 39.8516L79.127 21.5898H84.3262L76.1406 53ZM99.6445 53H94.5098V25.9941H85.2715V21.5898H108.883V25.9941H99.6445V53ZM118.809 53H113.717V21.5898H131.441V25.9297H118.809V35.748H130.646V40.1094H118.809V53Z" fill="#303A40"/>
<rect x="2" y="2" width="191" height="68" stroke="#303A40" stroke-width="4"/>
</svg>
